<svg xmlns="http://www.w3.org/2000/svg" aria-hidden="true" style="position:absolute;width:0;height:0;overflow:hidden"><defs><symbol id="icon-antenna" viewBox="0 0 32 32"><path fill="#212121" d="m30.773 22.098-8.443-8.505.937-4.615c.242.094.499.144.758.146h.006a2.159 2.159 0 1 0-2.008-1.435l-4.96.605L8.972.161a.534.534 0 0 0-.377-.16.532.532 0 0 0-.373.155L6.709 1.66a.534.534 0 0 0 0 .754l.814.826a14.943 14.943 0 0 0 2.519 17.663.513.513 0 0 0 .146.098c-.034.18-.051.364-.052.547v6.187h-6.4a2.67 2.67 0 0 0-2.667 2.667v1.067c0 .295.239.533.533.533h24.533a.533.533 0 0 0 .533-.533v-1.067a2.67 2.67 0 0 0-2.667-2.667h-6.4v-2.742a15.09 15.09 0 0 0 3.049.32 14.854 14.854 0 0 0 7.04-1.783l.818.823a.534.534 0 0 0 .377.16.532.532 0 0 0 .373-.155l1.513-1.504a.534.534 0 0 0 0-.754zM23.28 6.233a1.066 1.066 0 1 1 .752 1.822h-.003a1.067 1.067 0 0 1-.747-1.823h-.002zm-1.256 3.505-.598 2.946-1.175-1.182 1.774-1.763zm-.605-.902-1.92 1.909-1.485-1.493 3.405-.415zM24.004 28.8a1.6 1.6 0 0 1 1.6 1.6v.533H2.137V30.4a1.6 1.6 0 0 1 1.6-1.6h20.267zm-7.467-2.133v1.067h-5.333v-1.067h5.333zM11.204 25.6v-4.053c0-1.294 1.196-2.347 2.667-2.347s2.667 1.053 2.667 2.347V25.6h-5.333zm6.4-1.696v-2.357c0-1.882-1.675-3.413-3.733-3.413a3.8 3.8 0 0 0-3.281 1.786A13.87 13.87 0 0 1 8.311 4.033l18.602 18.708a13.818 13.818 0 0 1-9.309 1.163zm11.289-.684L7.836 2.039l.755-.752 7.935 7.98c.004 0 .006.007.01.01l13.115 13.191-.757.752z" style="fill:var(--color1, #212121)"/><path fill="#2196f3" d="M13.876 20.267h-.005a1.6 1.6 0 1 0-.004 3.2h.005a1.6 1.6 0 1 0 .004-3.2zm.373 1.978a.534.534 0 0 1-.752-.756.534.534 0 0 1 .373-.155.532.532 0 0 1 .373.911h.005z" style="fill:var(--color2, #2196f3)"/></symbol><symbol id="icon-astronaut" viewBox="0 0 32 32"><path fill="#2196f3" d="M31.974 4.524a.534.534 0 0 0-.43-.363l-1.91-.278-.855-1.731c-.179-.365-.777-.365-.956 0l-.855 1.731-1.91.278a.535.535 0 0 0-.296.91l1.383 1.348-.326 1.903c-.034.2.048.402.212.522a.53.53 0 0 0 .562.04l1.709-.899 1.709.899a.536.536 0 0 0 .775-.563l-.326-1.903 1.383-1.348a.536.536 0 0 0 .135-.547zm-2.463 1.327a.534.534 0 0 0-.153.472l.191 1.114-1-.526a.533.533 0 0 0-.498 0l-1.001.526.191-1.114a.534.534 0 0 0-.153-.472l-.81-.789 1.119-.163a.532.532 0 0 0 .402-.292l.5-1.013.5 1.013a.535.535 0 0 0 .402.292l1.119.163-.809.789zm-3.377 14.671h-1.067v1.067h1.067v-1.067zm0 2.134h-1.067v1.067h1.067v-1.067zm1.066-1.067h-1.067v1.067H27.2v-1.067zm-2.133 0H24v1.067h1.067v-1.067zm-2.667 4.8h-1.067v1.067H22.4v-1.067zm0 2.133h-1.067v1.067H22.4v-1.067zm1.067-1.066H22.4v1.067h1.067v-1.067zm-2.134 0h-1.067v1.067h1.067v-1.067zM16 24.256h-1.067v1.067H16v-1.067zm0 2.133h-1.067v1.067H16v-1.067zm1.067-1.067H16v1.067h1.067v-1.067zm-2.134 0h-1.067v1.067h1.067v-1.067zm-9.066-19.2H4.8v1.067h1.067V6.122zm0 2.133H4.8v1.067h1.067V8.255z" style="fill:var(--color2, #2196f3)"/><path fill="#2196f3" d="M6.933 7.189H5.866v1.067h1.067V7.189zm-2.133 0H3.733v1.067H4.8V7.189z" style="fill:var(--color2, #2196f3)"/><path fill="#212121" d="M24.715 14.159a1.775 1.775 0 0 0-1.188-.705 1.778 1.778 0 0 0-1.34.352l-1.252.96-1.898 1.417-1.358-.541c2.421-1.086 4.114-3.508 4.114-6.32 0-3.823-3.123-6.933-6.961-6.933s-6.961 3.11-6.961 6.933a6.86 6.86 0 0 0 1.12 3.758l-2.764-.024h-.005c-.009 0-.015.004-.023.005a.515.515 0 0 0-.155.031l-.038.013c-.006.003-.013.003-.019.006l-3.233 1.596-.001.001-1.893.911a.397.397 0 0 0-.063.035 1.779 1.779 0 0 0-.598 2.295c.22.429.595.745 1.056.889a1.776 1.776 0 0 0 1.378-.128l1.388-.738 2.264-1.169 1.357-.008L2.2 22.211l-.002.001-1.339 1.333c-.316.315-.49.732-.49 1.178s.174.863.49 1.179c.325.323.752.485 1.179.485s.854-.162 1.18-.485l1.314-1.309 1.741-1.3.901.897-1.762 1.754-.002.001-1.339 1.333c-.316.315-.49.732-.49 1.178s.174.863.49 1.179c.325.323.753.485 1.18.485s.855-.162 1.18-.485l3.482-3.467.001-.002 1.01-1-.004-.004c.006-.006.015-.009.022-.015l5.166-5.658 3.471.494a.52.52 0 0 0 .262-.033c.018-.006.033-.015.05-.023.019-.01.039-.015.058-.027l3.213-2.133c.012-.008.018-.021.029-.029.013-.01.029-.014.041-.026l1.271-1.191c.662-.62.753-1.635.212-2.362zM2.13 17.77a.714.714 0 0 1-.558.052.717.717 0 0 1-.213-1.26l1.314-.632.449 1.313-.992.527zm3.498-1.828-1.548.8-.439-1.283 2.027-1.001-.04 1.484zm15.099-6.62a5.79 5.79 0 0 1-.599 2.559l-4.181-1.899a1.863 1.863 0 0 0-.788-1.388l1.464-4.86c2.378.756 4.105 2.974 4.105 5.588zm-11.789 0c0-3.235 2.644-5.867 5.894-5.867.253 0 .5.021.745.052l-1.432 4.754c-.019-.001-.037-.006-.057-.006-1.033 0-1.873.837-1.873 1.867s.84 1.867 1.873 1.867c.694 0 1.294-.383 1.618-.945l3.862 1.755a5.894 5.894 0 0 1-4.737 2.39c-3.25 0-5.894-2.632-5.894-5.867zm5.956.8c0 .441-.362.8-.806.8s-.806-.359-.806-.8c0-.441.362-.8.806-.8s.806.359.806.8zM2.465 25.146a.608.608 0 0 1-.854.001.592.592 0 0 1 0-.844l.962-.959.851.848-.959.955zm3.214 3.734a.608.608 0 0 1-.855.001.592.592 0 0 1 0-.844l.963-.959.852.848-.96.955zm3.481-3.469-.002.001-1.765 1.76-.852-.848 1.763-1.755.002-.001c.04-.04.065-.088.09-.135.007-.014.02-.026.026-.04.017-.041.019-.085.026-.129.003-.025.014-.047.014-.073 0-.036-.013-.07-.02-.106-.006-.032-.006-.065-.019-.095a.55.55 0 0 0-.091-.138c-.01-.012-.014-.027-.025-.038h-.001l-.001-.002-1.607-1.6c-.017-.017-.039-.024-.058-.038a.507.507 0 0 0-.087-.058.515.515 0 0 0-.093-.033.507.507 0 0 0-.103-.02.5.5 0 0 0-.095.005.53.53 0 0 0-.104.02.477.477 0 0 0-.094.045c-.02.011-.042.015-.061.029L4.23 23.486l-.901-.897 2.399-2.386 4.361 4.289-.928.919zm6.819-7.017c-.015-.002-.03.004-.045.003a.556.556 0 0 0-.3.075.492.492 0 0 0-.083.061c-.013.011-.028.017-.04.029l-4.698 5.146-4.328-4.257 2.833-2.818a.534.534 0 0 0-.379-.911v-.001l-2.219.013.028-1.607 3.104.027a6.947 6.947 0 0 0 4.981 2.101c.437 0 .864-.045 1.279-.123.04.032.079.065.13.085l2.41.96.152.758.178.885-3.003-.427zm4.041.178-.313-1.558 1.446-1.08.947 1.257-2.08 1.381zm3.754-2.831-.838.785-.931-1.236.831-.637a.735.735 0 0 1 .543-.143.718.718 0 0 1 .48.284.713.713 0 0 1-.085.947z" style="fill:var(--color1, #212121)"/><path fill="#212121" d="m13.602 18.544-2.143-2.133a.534.534 0 0 0-.753 0l-2.142 2.133a.537.537 0 0 0 0 .756l2.142 2.133a.536.536 0 0 0 .753 0l2.143-2.133a.535.535 0 0 0 0-.756zm-2.519 1.759-1.387-1.381 1.387-1.381 1.387 1.381-1.387 1.381zm6.081-15.232-.258 1.036c.071.018 1.738.452 1.738 2.149h1.067c0-2.017-1.666-2.965-2.547-3.185zm2.547 4.251h-1.067v1.067h1.067V9.322z" style="fill:var(--color1, #212121)"/></symbol><symbol id="icon-client-1" viewBox="0 0 32 32"><path d="m11.391 9.169 2.101 1.989-3.899-.002v9.649h10.192v-3.689l2.098 1.986V9.169H11.391zm8.302 7.713-5.957-5.639h5.957v5.639zm-1.85 2.511h-6.638v-6.489h.469v6.05h6.169v.439zm-5.07 2.696-.245.505-.245-.505h-.206l.358.673v.392h.186v-.392l.357-.673h-.205zm.308 1.065.086-.248h.413l.087.248h.193l-.403-1.066h-.166l-.402 1.066h.193zm.293-.839.154.442h-.309l.154-.442zm.976.416a.24.24 0 0 0-.04.135c0 .09.031.163.094.219s.148.083.253.083.196-.029.272-.086l.06.071h.206l-.157-.185a.528.528 0 0 0 .092-.323h-.154a.418.418 0 0 1-.045.195l-.206-.243.073-.053c.051-.037.088-.074.11-.111s.034-.078.034-.123c0-.067-.025-.123-.075-.169s-.113-.069-.19-.069c-.086 0-.154.025-.205.073s-.076.114-.076.198c0 .034.008.07.024.106s.046.081.087.133a.65.65 0 0 0-.159.147zm.481.236a.273.273 0 0 1-.169.06c-.053 0-.095-.015-.127-.046s-.047-.071-.047-.12c0-.057.029-.108.088-.152l.023-.016.233.274zm-.192-.472c-.05-.062-.075-.113-.075-.154 0-.035.01-.065.031-.089s.048-.035.083-.035c.032 0 .059.01.08.03s.031.043.031.071a.13.13 0 0 1-.045.103l-.023.018-.081.055zm1.735.579a.389.389 0 0 0 .126-.266h-.185c-.01.076-.033.13-.07.163s-.091.049-.164.049c-.079 0-.14-.03-.182-.091s-.062-.149-.062-.263v-.094c.001-.114.023-.2.066-.258s.105-.089.186-.089c.069 0 .122.017.157.051s.058.089.067.165h.185c-.011-.117-.054-.207-.125-.271s-.166-.096-.284-.096c-.087 0-.165.021-.231.062s-.117.101-.153.177a.635.635 0 0 0-.053.266v.099c.002.098.02.184.055.258s.085.131.149.172c.065.04.14.06.225.06a.426.426 0 0 0 .292-.095zm1.088-.149a.658.658 0 0 0 .054-.275v-.059a.661.661 0 0 0-.055-.273.406.406 0 0 0-.386-.243.426.426 0 0 0-.231.063c-.067.042-.119.103-.156.182s-.055.171-.055.275v.06a.654.654 0 0 0 .055.27.415.415 0 0 0 .388.244c.087 0 .165-.021.231-.063s.119-.103.155-.182zm-.198-.603a.462.462 0 0 1 .067.271v.055c0 .12-.022.211-.067.274s-.107.094-.189.094c-.081 0-.145-.032-.19-.096s-.068-.154-.068-.271v-.062c.001-.115.024-.203.069-.266s.108-.094.188-.094a.22.22 0 0 1 .19.094z"/></symbol><symbol id="icon-client-2" viewBox="0 0 32 32"><path d="M15.022 8.85h-.041c-.063-.004-.126-.005-.189-.007h-.137a7.278 7.278 0 0 0-.388.009 8.485 8.485 0 0 0-3.153.804l-.13.062v6.637l.303-.103c.266-.091.55-.174.843-.25a10.296 10.296 0 0 1 2.427-.322v.872a8.257 8.257 0 0 0-.319.009h-.025c-.63.035-1.255.13-1.867.287a9.455 9.455 0 0 0-2.224.867V9.202a8.92 8.92 0 0 1 2.333-.949 8.871 8.871 0 0 1 2.199-.283h.128c.153.004.303.011.443.021.37.026.736.085 1.096.174v.858a6.79 6.79 0 0 0-1.062-.16l-.022-.002c-.074-.006-.148-.013-.217-.013zm1.511.877c.19.014.387.021.587.021a9.39 9.39 0 0 0 2.312-.297 9.553 9.553 0 0 0 2.223-.867v8.361a8.926 8.926 0 0 1-2.334.949 8.966 8.966 0 0 1-2.199.283 6.713 6.713 0 0 1-1.669-.197V9.565a6.795 6.795 0 0 0 1.079.162zm4.255.065-.303.102a10.297 10.297 0 0 1-3.363.576c-.198 0-.38-.005-.556-.017l-.242-.016v6.827l.208.018c.193.017.391.025.591.025a8.06 8.06 0 0 0 1.985-.257 8.39 8.39 0 0 0 1.551-.557l.13-.062V9.792zM10.713 20.624a.437.437 0 0 0-.337-.136.483.483 0 0 0-.346.137.446.446 0 0 0-.098.153.506.506 0 0 0-.035.188v1.137a.475.475 0 0 0 .159.386.409.409 0 0 0 .156.081.651.651 0 0 0 .17.023.471.471 0 0 0 .433-.297.451.451 0 0 0 .037-.181v-.127h-.297v.101a.248.248 0 0 1-.018.101.2.2 0 0 1-.043.064.218.218 0 0 1-.124.044.15.15 0 0 1-.14-.06.266.266 0 0 1-.039-.153v-1.061a.358.358 0 0 1 .037-.17c.015-.024.037-.043.063-.055s.054-.017.083-.013c.026-.001.051.005.074.015s.043.028.058.049a.24.24 0 0 1 .049.153v.098h.294v-.116a.524.524 0 0 0-.136-.359zm1.766-.013a.53.53 0 0 0-.516-.093.463.463 0 0 0-.272.252.525.525 0 0 0-.043.221v1.091a.531.531 0 0 0 .043.223.444.444 0 0 0 .115.153.471.471 0 0 0 .157.096.514.514 0 0 0 .517-.096.45.45 0 0 0 .112-.153.534.534 0 0 0 .043-.223v-1.091a.493.493 0 0 0-.155-.38zm-.139 1.471c.002.029-.002.058-.012.086s-.026.052-.047.072a.217.217 0 0 1-.28 0c-.021-.02-.037-.045-.047-.072s-.014-.057-.012-.086v-1.091c-.002-.029.002-.058.012-.086s.026-.052.047-.072a.217.217 0 0 1 .28 0c.021.02.037.045.047.072s.014.057.012.086v1.091zm2.459.487v-2.065h-.286l-.375 1.093h-.005l-.378-1.093h-.283v2.065h.295v-1.256h.005l.289.888h.147l.291-.888h.005v1.256h.295zm1.675-1.92a.413.413 0 0 0-.167-.113.673.673 0 0 0-.214-.032h-.438v2.065h.294v-.806h.151a.53.53 0 0 0 .265-.057.485.485 0 0 0 .229-.338c.011-.078.017-.156.016-.235a1.173 1.173 0 0 0-.029-.295.433.433 0 0 0-.109-.19zm-.151.629a.264.264 0 0 1-.027.107.168.168 0 0 1-.076.073.3.3 0 0 1-.139.026h-.134v-.702h.151a.29.29 0 0 1 .133.026.17.17 0 0 1 .069.076.302.302 0 0 1 .026.115v.137c0 .048.003.098 0 .142h-.003zm1.546-.775h-.241l-.455 2.065h.294l.086-.443h.401l.086.443h.294l-.466-2.065zm-.272 1.34.145-.749h.005l.144.749h-.294zm2.173-.096h-.005l-.445-1.244h-.283v2.065h.294v-1.242h.006l.45 1.242h.277v-2.065h-.294v1.244zm1.797-1.244-.237.821h-.006l-.237-.821h-.311l.404 1.192v.873h.294v-.873l.404-1.192h-.311zM9.892 23.151h.142v.398h.097v-.398h.141v-.082h-.379v.082zm1.193-.081-.186.479h.102l.039-.109h.191l.041.109h.105l-.19-.479h-.102zm-.016.29.065-.178.065.178h-.13zm1.194.013h.111v.062a.191.191 0 0 1-.114.041.12.12 0 0 1-.102-.045.2.2 0 0 1-.035-.125c0-.107.046-.16.138-.16a.102.102 0 0 1 .108.076l.095-.018c-.021-.094-.088-.141-.203-.141a.237.237 0 0 0-.167.062.24.24 0 0 0-.069.185.257.257 0 0 0 .062.18.232.232 0 0 0 .182.07.287.287 0 0 0 .203-.076v-.189h-.208v.081zm1.203-.303h-.097v.479h.336v-.082h-.239v-.398zm1.018 0h-.097v.479h.097v-.479zm.995.32-.197-.32h-.094v.479h.09v-.313l.193.313h.097v-.479h-.089v.32zm.899-.052h.239v-.082h-.239v-.105h.257v-.082h-.354v.479h.364v-.082h-.267v-.13zm2.181-.079h-.189v-.189h-.097v.479h.097v-.21h.189v.21h.097v-.479h-.097v.189zm.905.079h.239v-.082h-.239v-.105h.258v-.082h-.354v.479h.363v-.082h-.267v-.13zm1.227 0c.083-.013.126-.057.126-.133a.117.117 0 0 0-.047-.107.271.271 0 0 0-.14-.028h-.203v.479h.097v-.201h.019a.124.124 0 0 1 .06.011.103.103 0 0 1 .034.035l.105.153h.115l-.058-.094a.334.334 0 0 0-.106-.115zm-.097-.066h-.071v-.121h.076a.251.251 0 0 1 .098.011c.007.006.013.014.016.022s.005.018.005.027c-.001.009-.003.018-.007.027s-.011.015-.018.021a.25.25 0 0 1-.098.011zm1.022.066h.239v-.082h-.239v-.105h.258v-.082h-.355v.479h.364v-.082h-.267v-.13z"/></symbol><symbol id="icon-client-3" viewBox="0 0 32 32"><path d="M10.901 21.719c.005 0 .01.001.014.003l.011.007.065.062a.52.52 0 0 1-.184.118.741.741 0 0 1-.261.043.678.678 0 0 1-.245-.04.528.528 0 0 1-.185-.112.493.493 0 0 1-.119-.173.569.569 0 0 1-.042-.222.517.517 0 0 1 .367-.509.791.791 0 0 1 .486-.004.623.623 0 0 1 .176.1l-.054.067a.04.04 0 0 1-.014.012c-.006.004-.014.006-.022.005s-.017-.003-.024-.007l-.029-.018-.041-.022a.509.509 0 0 0-.225-.047.529.529 0 0 0-.181.03.378.378 0 0 0-.234.218.467.467 0 0 0 0 .355c.02.049.051.094.09.133a.397.397 0 0 0 .135.083.478.478 0 0 0 .168.028.65.65 0 0 0 .099-.006.388.388 0 0 0 .216-.092.049.049 0 0 1 .031-.011zm1.886-.313a.549.549 0 0 1-.044.221c-.026.064-.069.122-.123.171s-.12.087-.193.112a.794.794 0 0 1-.496 0 .577.577 0 0 1-.192-.113.507.507 0 0 1-.124-.173.574.574 0 0 1 0-.442.525.525 0 0 1 .124-.174.566.566 0 0 1 .192-.108.78.78 0 0 1 .496 0c.072.026.138.064.193.113s.095.107.123.171c.03.071.045.147.044.222zm-.172 0a.469.469 0 0 0-.031-.177.372.372 0 0 0-.226-.217.572.572 0 0 0-.361 0 .38.38 0 0 0-.138.084.352.352 0 0 0-.088.133.516.516 0 0 0 0 .355.372.372 0 0 0 .226.216.586.586 0 0 0 .361 0 .4.4 0 0 0 .138-.083.386.386 0 0 0 .088-.133.45.45 0 0 0 .031-.177zm1.458.186.017.04.019-.04.021-.039.417-.659c.008-.011.016-.019.024-.021.011-.003.022-.004.034-.003h.123v1.072h-.146v-.858l-.419.668c-.005.01-.014.019-.025.024s-.023.009-.036.009h-.024c-.013 0-.025-.003-.036-.009s-.019-.015-.025-.025l-.432-.673v.86h-.141v-1.069h.123c.012-.001.023.001.034.003.01.005.018.012.023.021l.426.66a.203.203 0 0 1 .021.038zm1.57-.054v.401h-.163v-1.07h.364a.763.763 0 0 1 .203.024.405.405 0 0 1 .144.067.264.264 0 0 1 .081.105.31.31 0 0 1 .027.137.31.31 0 0 1-.03.137.31.31 0 0 1-.088.107.43.43 0 0 1-.144.071.72.72 0 0 1-.197.025l-.198-.003zm0-.115h.198a.44.44 0 0 0 .126-.016.294.294 0 0 0 .092-.046.19.19 0 0 0 .056-.071.218.218 0 0 0 .02-.09.187.187 0 0 0-.073-.16.349.349 0 0 0-.22-.057h-.198v.441zm2.194.518h-.129a.056.056 0 0 1-.036-.01.072.072 0 0 1-.021-.025l-.111-.259h-.557l-.115.259a.059.059 0 0 1-.02.024.067.067 0 0 1-.037.011h-.129l.49-1.072h.17l.496 1.072zm-.808-.398h.46l-.194-.436a.717.717 0 0 1-.037-.101l-.019.056a.42.42 0 0 1-.018.045l-.193.436zm1.514-.669c.01.005.018.011.025.019l.714.808v-.832h.146v1.072h-.081c-.012.001-.023-.002-.034-.006s-.019-.012-.026-.02l-.714-.807v.834h-.146V20.87h.086c.01 0 .02.002.029.005zm2.087.641v.426h-.163v-.426l-.451-.646h.146a.061.061 0 0 1 .035.009.1.1 0 0 1 .022.024l.282.417.029.049c.008.015.015.03.02.045l.021-.046a.467.467 0 0 1 .027-.049l.278-.419a.11.11 0 0 1 .021-.022.06.06 0 0 1 .035-.011h.148l-.453.648zm-6.638-2.444c.071.008.143.014.216.02 1.101-.428 2.033-1.129 2.679-2.014s.977-1.917.952-2.965l-1.214-1.055c.247 1.116.131 2.27-.333 3.332s-1.261 1.991-2.298 2.683z"/><path d="m13.558 19.022.033.006c1.109-.689 1.954-1.652 2.427-2.763s.551-2.32.224-3.47l-1.729-1.502c.7 1.235.981 2.617.812 3.985s-.782 2.667-1.767 3.745zm5.864-3.673c-.294 1.152-1.007 2.191-2.035 2.962-.3.227-.624.428-.967.603.837-.213 1.605-.591 2.247-1.104s1.14-1.146 1.455-1.853l-.701-.609z"/><path d="m19.147 15.18-.998-.867c-.019.989-.342 1.955-.937 2.799s-1.438 1.533-2.443 1.998h.005c.224 0 .448-.012.67-.035.939-.333 1.769-.863 2.416-1.543s1.089-1.488 1.288-2.352zm-5.444-4.521-1.191-1.036c-1.065.358-1.981.986-2.627 1.803s-.995 1.785-.998 2.777c.004 1.096.428 2.159 1.206 3.022s1.865 1.475 3.088 1.741c1.092-1.157 1.732-2.585 1.826-4.079s-.363-2.975-1.304-4.227zm8.196 4.361c-.005-1.3-.601-2.546-1.659-3.466s-2.492-1.438-3.989-1.441a6.321 6.321 0 0 0-2.022.327l7.293 6.336a4.28 4.28 0 0 0 .377-1.756z"/></symbol><symbol id="icon-client-4" viewBox="0 0 32 32"><path d="M7.23 13.336h-.001c-.718 0-1.3.517-1.3 1.155v.001c0 .638.582 1.155 1.3 1.155h.001c.718 0 1.3-.517 1.3-1.155v-.001c0-.638-.582-1.155-1.3-1.155zm9.596-.369c-.002-.886-.399-1.736-1.104-2.362s-1.661-.98-2.658-.982c-.998.002-1.954.354-2.659.981S9.302 12.08 9.3 12.967v4.888s7.526-.745 7.526-4.886v-.001zM3.294 19.458c.002.616.278 1.208.769 1.644s1.155.682 1.849.684c.694-.002 1.359-.248 1.849-.684s.767-1.027.769-1.643v-3.4s-5.236.519-5.236 3.4zm2.618.609c-.136 0-.268-.036-.381-.103s-.2-.162-.253-.273c-.052-.111-.066-.234-.039-.352s.091-.227.188-.312c.096-.085.218-.143.351-.167s.271-.011.396.035.232.124.308.225a.56.56 0 0 1-.084.771c-.064.057-.139.102-.223.133s-.173.047-.263.047v-.002zm5.291-.335h-.505v.522h-.263v-1.277h.831v.213h-.568v.33h.505v.212zm1.265-.088a.764.764 0 0 1-.067.331.508.508 0 0 1-.475.297.504.504 0 0 1-.477-.293.754.754 0 0 1-.069-.326v-.063c0-.126.022-.236.067-.332s.109-.17.192-.22c.083-.052.178-.077.284-.077s.201.026.284.077c.083.051.147.124.192.22s.069.205.069.331v.057zm-.266-.058c0-.134-.024-.236-.072-.305s-.116-.104-.205-.104c-.088 0-.157.034-.204.103s-.072.169-.073.302v.062c0 .13.024.231.072.304s.117.108.207.108c.088 0 .156-.034.204-.103s.071-.171.072-.304v-.062zm1.12.333c0-.05-.017-.088-.053-.114s-.098-.055-.189-.084a1.393 1.393 0 0 1-.217-.088c-.145-.079-.217-.184-.217-.317 0-.069.019-.13.058-.184s.095-.097.167-.127c.073-.03.155-.045.246-.045s.172.017.244.05a.37.37 0 0 1 .225.344h-.263c0-.058-.019-.104-.055-.136s-.089-.049-.155-.049c-.065 0-.115.013-.15.041s-.053.062-.053.107c0 .042.021.076.062.104s.104.054.185.079c.15.045.259.101.327.167s.103.15.103.249c0 .111-.042.198-.125.261s-.196.094-.338.094a.664.664 0 0 1-.268-.053.38.38 0 0 1-.248-.366h.264c0 .141.084.212.253.212.062 0 .111-.012.147-.038s.053-.061.053-.107zm1.404-.729h-.391v1.064h-.263V19.19h-.386v-.213h1.04v.213zm.92.51h-.505v.342h.593v.212h-.856v-1.277h.854v.213h-.591v.304h.505v.206zm.714.086h-.209v.468h-.263v-1.277h.474c.151 0 .267.034.349.101s.123.162.123.285c0 .087-.019.16-.057.218s-.094.104-.171.139l.276.522v.012H16.6l-.24-.468zm-.209-.213h.212c.066 0 .117-.017.153-.05s.054-.08.054-.139c0-.06-.017-.108-.052-.142s-.086-.052-.157-.052h-.212v.383zm1.594.23v.45h-.263v-1.277h.498c.096 0 .18.017.253.053s.129.085.168.15a.419.419 0 0 1 .059.22c0 .125-.043.224-.129.296s-.204.108-.355.108h-.231zm0-.212h.235c.07 0 .122-.016.159-.049s.055-.08.055-.14c0-.062-.019-.113-.055-.152s-.088-.058-.153-.059h-.241v.401zm1.666.109h-.505v.342h.593v.212h-.856v-1.277h.854v.213h-.591v.304h.505v.206zm1.221-.51h-.391v1.064h-.263V19.19h-.386v-.213h1.04v.213zm.919.51h-.505v.342h.593v.212h-.856v-1.277h.854v.213h-.591v.304h.505v.206zm.715.086h-.209v.468h-.263v-1.277h.474c.151 0 .267.034.349.101s.123.162.123.285c0 .087-.019.16-.057.218s-.094.104-.171.139l.276.522v.012h-.282l-.24-.468zm-.21-.213h.212c.066 0 .117-.017.153-.05s.054-.08.054-.139c0-.06-.017-.108-.052-.142s-.086-.052-.157-.052h-.212v.383zm1.547.346c0-.05-.017-.088-.053-.114s-.098-.055-.189-.084a1.393 1.393 0 0 1-.217-.088c-.145-.079-.218-.184-.218-.317 0-.069.019-.13.058-.184s.095-.097.167-.127c.073-.03.155-.045.246-.045s.172.017.244.05a.386.386 0 0 1 .166.139c.04.06.059.129.059.205h-.263c0-.058-.019-.104-.055-.136s-.089-.049-.155-.049c-.065 0-.115.013-.15.041s-.053.062-.053.107c0 .042.021.076.062.104s.104.054.185.079c.15.045.259.101.327.167s.103.15.103.249c0 .111-.042.198-.125.261s-.196.094-.338.094a.664.664 0 0 1-.268-.053.38.38 0 0 1-.248-.366h.264c0 .141.084.212.253.212.062 0 .111-.012.147-.038s.053-.061.053-.107z"/></symbol><symbol id="icon-client-5" viewBox="0 0 32 32"><path d="M8.011 20.412a.43.43 0 0 1 .11.293c.004.069-.01.139-.039.203s-.074.121-.131.167a.785.785 0 0 1-.495.135h-.87v-1.854h.852a.778.778 0 0 1 .472.123c.055.042.099.095.127.155s.042.126.038.191a.407.407 0 0 1-.099.284.466.466 0 0 1-.259.145c.115.019.22.075.294.158zm-1.019-.28h.364a.36.36 0 0 0 .231-.062.209.209 0 0 0 .078-.181c.003-.034-.003-.067-.016-.098s-.034-.059-.061-.083a.37.37 0 0 0-.239-.062h-.358v.486zm.631.711a.217.217 0 0 0 .086-.188c.002-.036-.005-.071-.02-.104s-.039-.062-.068-.086a.403.403 0 0 0-.247-.067h-.382v.51h.387a.407.407 0 0 0 .244-.064zm2.129.366-.474-.725H9.1v.725h-.408v-1.854h.771a.808.808 0 0 1 .537.158.552.552 0 0 1 .058.767.648.648 0 0 1-.368.189l.504.741h-.443zm-.652-.977h.333c.231 0 .347-.094.347-.281.002-.038-.004-.076-.019-.112s-.037-.069-.066-.096a.379.379 0 0 0-.262-.075h-.337l.004.564zm2.88.604h-.812l-.143.373h-.427l.746-1.833h.462l.743 1.833h-.427l-.14-.373zm-.109-.281-.297-.783-.297.783h.593zm2.897.654h-.405l-.907-1.26v1.26h-.404v-1.854h.404l.907 1.268v-1.268h.405v1.854zm2.308-.444a.844.844 0 0 1-.366.327 1.288 1.288 0 0 1-.569.117h-.72v-1.854h.72c.197-.005.392.034.569.114a.829.829 0 0 1 .366.323.993.993 0 0 1 0 .972zm-.462-.044c.116-.123.179-.28.179-.442s-.063-.319-.179-.442a.747.747 0 0 0-.506-.158h-.281v1.2h.281a.739.739 0 0 0 .506-.158zM12.233 9.044s5.222 1.805 5.11 4.417v4.418s-5.218-1.806-5.109-4.418l-.002-4.417zm9.762 7.8a7.576 7.576 0 0 1 3.317-1.119v-1.383c-1.372.484-2.536 1.362-3.317 2.502z"/><path d="M21.403 17.26c.807-1.488 2.206-2.636 3.91-3.208v-3.985s-7.436 2.571-7.279 6.291v6.289s.331-.115.853-.331c0-.201 0-.404.024-.607.154-1.727 1.05-3.327 2.493-4.449z"/><path d="M20.696 19.597c.039-.436.126-.868.26-1.288-.898.968-1.442 2.17-1.555 3.437-.011.12-.017.239-.02.362.422-.186.914-.418 1.43-.69a5.962 5.962 0 0 1-.116-1.821zm.295.022a5.708 5.708 0 0 0 .092 1.649c2.032-1.113 4.314-2.833 4.226-4.911v-.181c-1.451.149-2.809.73-3.865 1.654a5.773 5.773 0 0 0-.453 1.79z"/></symbol><symbol id="icon-client-6" viewBox="0 0 32 32"><path d="M15.996 15.224a.882.882 0 0 1-.181-.596v-.863c0-.264.06-.466.18-.604s.326-.206.619-.205c.275 0 .469.058.585.176a.714.714 0 0 1 .173.517v.203h-.491v-.205a1.04 1.04 0 0 0-.014-.201.2.2 0 0 0-.07-.12.29.29 0 0 0-.178-.047.296.296 0 0 0-.187.049.226.226 0 0 0-.081.132.96.96 0 0 0-.019.213v1.048a.534.534 0 0 0 .063.294c.025.031.058.056.098.071s.084.021.127.016a.264.264 0 0 0 .174-.047.208.208 0 0 0 .073-.127c.011-.07.017-.14.015-.21v-.213h.491v.194a.79.79 0 0 1-.17.543c-.113.128-.305.193-.588.193s-.496-.069-.618-.211zm2.046.009c-.124-.134-.186-.33-.186-.589v-.908c0-.257.062-.45.186-.582s.332-.197.623-.197c.289 0 .495.066.619.197.124.132.187.326.187.582v.908c0 .257-.063.453-.189.588s-.332.203-.618.203-.497-.069-.623-.202zm.851-.218a.507.507 0 0 0 .059-.269v-1.112a.488.488 0 0 0-.058-.263c-.025-.032-.059-.057-.101-.072s-.085-.021-.13-.015c-.044-.005-.089 0-.13.016s-.076.04-.101.072a.48.48 0 0 0-.059.263v1.117a.498.498 0 0 0 .059.269.32.32 0 0 0 .23.091.336.336 0 0 0 .23-.091v-.005zm1.169-2.032h.529l.397 1.675.407-1.675h.515l.052 2.419h-.381l-.04-1.681-.392 1.681h-.305l-.407-1.687-.038 1.687h-.385l.048-2.419zm2.493 0h.824c.475 0 .712.229.712.687 0 .438-.25.657-.749.657h-.281v1.075h-.509l.003-2.419zm.704 1.034c.051.006.101.002.149-.012s.093-.035.13-.065a.392.392 0 0 0 .073-.273.744.744 0 0 0-.025-.22c-.007-.024-.02-.047-.038-.066s-.039-.037-.064-.049a.53.53 0 0 0-.227-.039h-.198v.723h.198zm1.565-1.034h.546l.56 2.419h-.474l-.111-.557h-.487l-.114.557h-.481l.56-2.419zm.467 1.58-.19-1.015-.19 1.015h.381zm1.093-1.58h.356l.682 1.379v-1.379h.422v2.419h-.339l-.685-1.44v1.44h-.436l.001-2.419zm2.448 1.496-.566-1.493h.477l.346.959.325-.959h.467l-.56 1.493v.922h-.488v-.922zm-12.051 1.98v.126h-.415v.982h-.174v-.982h-.417v-.126h1.006zm1.301 1.109h-.134a.058.058 0 0 1-.038-.011.053.053 0 0 1-.022-.025l-.12-.263h-.576l-.12.263a.07.07 0 0 1-.019.03.07.07 0 0 1-.038.011h-.134l.509-1.109h.177l.515 1.105zm-.842-.412h.48l-.203-.451a.997.997 0 0 1-.038-.104l-.019.059-.019.047-.202.45zm1.719.303a.569.569 0 0 0 .249-.033l.068-.027v-.249h-.203l-.015-.002c-.005-.001-.009-.004-.013-.007l-.008-.009a.014.014 0 0 1-.002-.011v-.085h.395v.425a.702.702 0 0 1-.215.091.914.914 0 0 1-.127.023 1.466 1.466 0 0 1-.148.007.769.769 0 0 1-.257-.041.618.618 0 0 1-.203-.116.53.53 0 0 1-.178-.406.507.507 0 0 1 .177-.408.605.605 0 0 1 .203-.115.895.895 0 0 1 .535-.004.615.615 0 0 1 .191.102l-.049.069a.046.046 0 0 1-.039.021.066.066 0 0 1-.031-.009l-.05-.026a.59.59 0 0 0-.291-.065.597.597 0 0 0-.197.031.402.402 0 0 0-.244.226.524.524 0 0 0 0 .37.436.436 0 0 0 .251.228.595.595 0 0 0 .202.022zm1.622-.018h.555v.126h-.725v-1.109h.174l-.004.982zm1.133.126h-.174v-1.109h.174v1.109zm.647-1.103c.01.005.019.012.026.02l.743.836a.254.254 0 0 1 0-.039v-.826h.152v1.114h-.088a.082.082 0 0 1-.038-.006.097.097 0 0 1-.027-.021l-.743-.835v.862h-.145V16.46h.09c.01 0 .02.002.029.005zm2.202-.005v.122h-.616v.366h.5v.118h-.5v.378h.616v.122h-.796v-1.107h.796zM6.336 9.609l7.723 1.893v6.635l-7.723-1.892V9.61zm-.495-.565v7.523l8.713 2.137v-7.522L5.841 9.045z"/><path d="m10.511 22.196-8.714-2.138v-7.522l8.714 2.137v7.523zM5.985 9.524l7.623 1.869-3.242 2.8-7.624-1.871 3.243-2.799zm-.144-.48-4.044 3.491 8.714 2.137 4.043-3.491-8.713-2.137zm5.16 12.728 3.553-3.068-3.553-.872v3.94z"/></symbol><symbol id="icon-clock" viewBox="0 0 32 32"><path fill="#212121" d="M31.297 15.301C31.295 6.849 24.442-.002 15.989 0S.686 6.855.688 15.308a15.304 15.304 0 0 0 10.649 14.576.662.662 0 0 0 .529-.065.637.637 0 0 0 .283-.356l3.865-12.25a1.912 1.912 0 1 0-.84-3.635l-5.106-5.107a.637.637 0 0 0-.902.902l5.103 5.109a1.876 1.876 0 0 0 .536 2.309l-3.683 11.673C3.844 25.783.118 17.71 2.799 10.432S13.553-.572 20.831 2.109s11.004 10.754 8.323 18.032a14.042 14.042 0 0 1-7.462 7.973l-.398-1.874a.638.638 0 0 0-1.048-.344l-3.837 3.426a.637.637 0 0 0 .231 1.084l4.899 1.563a.638.638 0 0 0 .819-.74l-.391-1.839a15.255 15.255 0 0 0 9.329-14.089zm-15.305-.637a.638.638 0 1 1 0 1.277.638.638 0 0 1 0-1.277zm2.101 14.864 2.184-1.948.603 2.84-2.787-.892z" style="fill:var(--color1, #212121)"/><path fill="#2196f3" d="M15.354 3.185V4.46a.638.638 0 1 0 1.276 0V3.185a.638.638 0 0 0-1.276 0zM3.876 14.664a.638.638 0 0 0 0 1.276h1.275a.638.638 0 1 0 0-1.276H3.876zm24.232 1.275a.638.638 0 1 0 0-1.276h-1.275a.638.638 0 0 0 0 1.276h1.275z" style="fill:var(--color2, #2196f3)"/></symbol><symbol id="icon-diagram" viewBox="0 0 32 32"><path fill="#2196f3" d="M14.926 14.965h1.066v4.798h-1.066v-4.797zm4.264 2.132h1.066v2.665H19.19v-2.665zm-8.529 1.599h1.066v1.066h-1.066v-1.066zm-3.198-.533h1.066v1.599H7.463v-1.599z" style="fill:var(--color2, #2196f3)"/><path fill="#212121" d="M1.599 28.291h25.587a1.6 1.6 0 0 0 1.599-1.599V24.56a1.6 1.6 0 0 0-1.599-1.599h-.533V9.668L29.681 6.8a1.608 1.608 0 1 0-.746-.763L26.654 8.2V6.97a1.6 1.6 0 0 0-1.599-1.599H3.733A1.6 1.6 0 0 0 2.134 6.97v15.992h-.533a1.6 1.6 0 0 0-1.599 1.599v2.132a1.6 1.6 0 0 0 1.599 1.599zM30.384 4.837a.533.533 0 1 1 0 1.067.533.533 0 0 1 0-1.067zM3.198 6.969c0-.294.239-.533.533-.533h21.322c.294 0 .533.239.533.533v2.239l-1.066 1.013V8.035a.533.533 0 0 0-.533-.533H4.797a.533.533 0 0 0-.533.533v13.326c0 .294.239.533.533.533h19.19a.533.533 0 0 0 .533-.533v-9.674l1.066-1.01v12.284H3.198V6.969zm4.798 6.93a1.598 1.598 0 1 0 1.107 2.749l1.853.93a.532.532 0 0 0 .636-.123l3.939-4.431 3.872 2.901a.533.533 0 0 0 .686-.039l3.365-3.188v8.131H5.33V8.569h18.124v2.66l-3.771 3.572-3.904-2.927a.533.533 0 0 0-.718.072l-3.993 4.493-1.493-.746c.011-.064.018-.129.02-.193a1.6 1.6 0 0 0-1.599-1.599zm.533 1.599a.533.533 0 1 1-1.067 0 .533.533 0 0 1 1.067 0zm3.198 8.528h5.331v.533a.533.533 0 0 1-.533.533h-4.264a.533.533 0 0 1-.533-.533v-.533zm-10.661.534c0-.294.239-.533.533-.533h9.062v.533a1.6 1.6 0 0 0 1.599 1.599h4.264a1.6 1.6 0 0 0 1.599-1.599v-.533h9.062c.294 0 .533.239.533.533v2.132a.533.533 0 0 1-.533.533H1.598a.533.533 0 0 1-.533-.533V24.56z" style="fill:var(--color1, #212121)"/></symbol><symbol id="icon-envelope" viewBox="0 0 43 32"><path d="M38.667 0H4C1.794 0 0 1.794 0 4v24c0 2.206 1.794 4 4 4h34.667c2.206 0 4-1.794 4-4V4c0-2.206-1.794-4-4-4zm0 2.667c.181 0 .353.038.511.103L21.334 18.236 3.49 2.77a1.32 1.32 0 0 1 .511-.103h34.667zm0 26.666H4A1.334 1.334 0 0 1 2.667 28V5.587L20.46 21.008a1.335 1.335 0 0 0 1.748 0L40.001 5.587V28c0 .736-.598 1.333-1.333 1.333z"/></symbol><symbol id="icon-facebook" viewBox="0 0 32 32"><path d="M21.329 5.313h2.921V.225C23.746.156 22.013 0 19.994 0c-4.212 0-7.097 2.649-7.097 7.519V12H8.249v5.688h4.648V32h5.699V17.689h4.46l.708-5.688h-5.169V8.082c.001-1.644.444-2.769 2.735-2.769z"/></symbol><symbol id="icon-instagram" viewBox="0 0 32 32"><path d="M31.969 9.408c-.075-1.7-.35-2.869-.744-3.882a7.806 7.806 0 0 0-1.851-2.838A7.867 7.867 0 0 0 26.542.844C25.523.45 24.36.175 22.66.1 20.947.019 20.403 0 16.059 0s-4.888.019-6.595.094c-1.7.075-2.869.35-3.882.744a7.803 7.803 0 0 0-2.838 1.85A7.867 7.867 0 0 0 .9 5.52C.506 6.539.231 7.702.156 9.402c-.081 1.713-.1 2.257-.1 6.601s.019 4.888.094 6.595c.075 1.7.35 2.869.744 3.882a7.895 7.895 0 0 0 1.85 2.838 7.867 7.867 0 0 0 2.832 1.844c1.019.394 2.182.669 3.882.744 1.706.075 2.25.094 6.595.094s4.888-.019 6.595-.094c1.7-.075 2.869-.35 3.882-.744a8.184 8.184 0 0 0 4.682-4.682c.394-1.019.669-2.182.744-3.882.075-1.707.094-2.251.094-6.595s-.006-4.888-.081-6.595zm-2.882 13.065c-.069 1.563-.331 2.407-.55 2.969a5.31 5.31 0 0 1-3.038 3.038c-.563.219-1.413.481-2.969.55-1.688.075-2.194.094-6.464.094s-4.782-.019-6.464-.094c-1.563-.069-2.407-.331-2.969-.55a4.926 4.926 0 0 1-1.838-1.194 4.974 4.974 0 0 1-1.194-1.838c-.219-.563-.481-1.413-.55-2.969-.075-1.688-.094-2.194-.094-6.464s.019-4.782.094-6.464c.069-1.563.331-2.407.55-2.969a4.868 4.868 0 0 1 1.2-1.838A4.974 4.974 0 0 1 6.639 3.55c.563-.219 1.413-.481 2.969-.55 1.688-.075 2.194-.094 6.464-.094 4.276 0 4.782.019 6.464.094 1.563.069 2.407.331 2.969.55a4.914 4.914 0 0 1 1.838 1.194 4.974 4.974 0 0 1 1.194 1.838c.219.563.481 1.413.55 2.969.075 1.688.094 2.194.094 6.464s-.019 4.77-.094 6.458z"/><path d="M16.059 7.783c-4.538 0-8.22 3.682-8.22 8.22s3.682 8.22 8.22 8.22c4.539 0 8.22-3.682 8.22-8.22s-3.682-8.22-8.22-8.22zm0 13.552a5.333 5.333 0 0 1 0-10.664 5.333 5.333 0 0 1 0 10.664zM26.524 7.458a1.919 1.919 0 1 1-3.838 0 1.919 1.919 0 0 1 3.838 0z"/></symbol><symbol id="icon-linkedin" viewBox="0 0 32 32"><path d="M31.992 32v-.001H32V20.263c0-5.741-1.236-10.164-7.948-10.164-3.227 0-5.392 1.771-6.276 3.449h-.093v-2.913h-6.364v21.364h6.627V21.42c0-2.785.528-5.479 3.977-5.479 3.399 0 3.449 3.179 3.449 5.657v10.401h6.62zM.528 10.636h6.635V32H.528V10.636zM3.843 0C1.722 0 0 1.721 0 3.843s1.721 3.879 3.843 3.879c2.121 0 3.843-1.757 3.843-3.879A3.846 3.846 0 0 0 3.843 0z"/></symbol><symbol id="icon-smartphone" viewBox="0 0 20 32"><path d="M17 0H3C1.346 0 0 1.346 0 3v26c0 1.654 1.346 3 3 3h14c1.654 0 3-1.346 3-3V3c0-1.654-1.346-3-3-3zM3 2h14a1 1 0 0 1 1 1v21H2V3a1 1 0 0 1 1-1zm14 28H3a1 1 0 0 1-1-1v-3h16v3a1 1 0 0 1-1 1z"/><path d="M4.707 27.478c.391.365.391.956 0 1.321s-1.024.365-1.414 0c-.391-.365-.391-.956 0-1.321s1.024-.365 1.414 0z"/></symbol><symbol id="icon-twitter" viewBox="0 0 32 32"><path d="M32 6.078c-1.19.522-2.458.868-3.78 1.036a6.523 6.523 0 0 0 2.886-3.626 13.11 13.11 0 0 1-4.16 1.588A6.574 6.574 0 0 0 22.154 3c-3.632 0-6.556 2.948-6.556 6.562 0 .52.044 1.02.152 1.496-5.454-.266-10.28-2.88-13.522-6.862a6.605 6.605 0 0 0-.898 3.316 6.57 6.57 0 0 0 2.914 5.452 6.479 6.479 0 0 1-2.964-.808v.072c0 3.188 2.274 5.836 5.256 6.446a6.548 6.548 0 0 1-1.72.216 5.8 5.8 0 0 1-1.242-.112c.85 2.598 3.262 4.508 6.13 4.57a13.182 13.182 0 0 1-8.134 2.798c-.538 0-1.054-.024-1.57-.09A18.469 18.469 0 0 0 10.064 29c12.072 0 18.672-10 18.672-18.668 0-.29-.01-.57-.024-.848A13.087 13.087 0 0 0 32 6.078z"/></symbol></defs></svg>